<svg width="128" height="128" viewBox="0 0 128 128" fill="none" xmlns="http://www.w3.org/2000/svg">
<circle cx="64" cy="64" r="44.5" stroke="#CCCCCC" stroke-width="5"/>
<path d="M30.0477 95.5C38.6035 86.5644 50.6519 81 64 81C77.3481 81 89.3965 86.5644 97.9523 95.5" stroke="#CCCCCC" stroke-width="5"/>
<path d="M30.0477 32.5C38.6035 41.4356 50.6519 47 64 47C77.3481 47 89.3965 41.4356 97.9523 32.5" stroke="#CCCCCC" stroke-width="5"/>
<path d="M86.5 64C86.5 76.6524 83.7668 87.983 79.4705 96.06C75.1162 104.246 69.5273 108.5 64 108.5C58.4727 108.5 52.8838 104.246 48.5295 96.06C44.2333 87.983 41.5 76.6524 41.5 64C41.5 51.3476 44.2333 40.017 48.5295 31.94C52.8838 23.754 58.4727 19.5 64 19.5C69.5273 19.5 75.1162 23.754 79.4705 31.94C83.7668 40.017 86.5 51.3476 86.5 64Z" stroke="#CCCCCC" stroke-width="5"/>
<line x1="17" y1="63.5" x2="111" y2="63.5" stroke="#CCCCCC" stroke-width="5"/>
</svg>
