<svg id="Layer_1" data-name="Layer 1" xmlns="http://www.w3.org/2000/svg" xmlns:xlink="http://www.w3.org/1999/xlink" viewBox="0 0 1025.73 1025.73"><defs><clipPath id="clip-path" transform="translate(247.86 247.88)"><path d="M204.08,202.5a5,5,0,0,1-4.76,3.45H2.14L161.88,322a5,5,0,0,0,5.57.2c44.19-27.46,82.82-46.51,165-68,0,0-126,94.41-208.58,200.19a25.14,25.14,0,0,0-4.11,7.71L102.57,515l159.52-115.9a5,5,0,0,1,5.88,0L427.49,515,366.54,327.44a5,5,0,0,1,1.81-5.59L527.86,206H330.7a5,5,0,0,1-4.76-3.45L265,15Z" fill="none"/></clipPath><linearGradient id="linear-gradient" x1="15.24" y1="-200.26" x2="16.24" y2="-200.26" gradientTransform="translate(-7941.87 104254.54) scale(519.26)" gradientUnits="userSpaceOnUse"><stop offset="0" stop-color="#fa1660"/><stop offset="0.28" stop-color="#fa1660"/><stop offset="0.78" stop-color="#ff6e00"/><stop offset="1" stop-color="#ff6e00"/></linearGradient></defs><title>favicon</title><g clip-path="url(#clip-path)"><rect x="-97.65" y="-97.67" width="725.3" height="725.3" transform="translate(138.11 512.88) rotate(-45)" fill="url(#linear-gradient)"/></g></svg>